<?xml version="1.0" encoding="UTF-8"?>
<!-- Generator: Adobe Illustrator 19.1.0, SVG Export Plug-In . SVG Version: 6.00 Build 0)  -->
<svg version="1.1" id="Layer_1" xmlns="http://www.w3.org/2000/svg" xmlns:xlink="http://www.w3.org/1999/xlink" x="0px" y="0px" viewBox="0 0 1029 456.4" enable-background="new 0 0 1029 456.4" xml:space="preserve">
<g>
	<g>
		<path fill="#EC008C" d="M240.6,221.7h15.2v18.1c1.9-1.5,6.1-3.4,13.8-3.4c12.9,0,15.9,7.4,15.9,18.6v26.8h-15.3v-23.6    c0-4.2-0.5-7.3-6.3-7.3c-7,0-8,2.9-8,7.6v23.4h-15.3V221.7z"/>
		<path fill="#EC008C" d="M293.5,259.7v-22.4h15.3V260c0,5.6,0.3,9.1,7,9.1c6.7,0,7-3.6,7-9.1v-22.7h15.1v22.4    c0,16.9-5.3,22.8-22.2,22.8C298.9,282.5,293.5,276.7,293.5,259.7z"/>
		<path fill="#EC008C" d="M344.1,259.3c0-12.1,4.1-22.9,19.9-22.9c7.3,0,10.7,1.9,12.4,3.4v-18.1h15.4v59.5l-11.8,1.1l-1.5-4    c-2.6,2.5-7.1,4.3-15,4.3C347.9,282.5,344.1,271.5,344.1,259.3z M376.3,259.3c0-6-1.4-9.1-9.1-9.1c-6.6,0-7.6,4-7.6,9.1    c0,5.2,0.9,10.1,7.6,10.1C374.3,269.4,376.3,265.5,376.3,259.3z"/>
		<path fill="#EC008C" d="M398.1,259.3c0-12.1,4.1-22.9,19.9-22.9c7.3,0,10.7,1.9,12.4,3.4v-18.1h15.4v59.5l-11.8,1.1l-1.5-4    c-2.6,2.5-7.1,4.3-15,4.3C402,282.5,398.1,271.5,398.1,259.3z M430.4,259.3c0-6-1.4-9.1-9.1-9.1c-6.6,0-7.6,4-7.6,9.1    c0,5.2,0.9,10.1,7.6,10.1C428.4,269.4,430.4,265.5,430.4,259.3z"/>
		<path fill="#EC008C" d="M452.2,259.4c0-12.1,4.2-23.1,24-23.1c19.7,0,21,12.7,20.5,28.4H467c0.8,3.6,3.1,5.5,9.1,5.5    c6.6,0,10.6-1.5,13.7-3.9l7.7,9.8c-6.3,4.8-12.3,6.3-21.3,6.3C456.3,282.5,452.2,271.9,452.2,259.4z M466.9,255.7h15.9    c-0.2-3.6-0.7-6.7-7-6.7C469.5,249.1,467.5,251.5,466.9,255.7z"/>
		<path fill="#EC008C" d="M503.1,238.2l11.9-0.9l1.5,4.6c1.9-2.6,7.3-4.9,13.6-5.1v14.8c-10.2,0.1-11.8,3.1-11.8,9.1v21h-15.3V238.2    z"/>
		<path fill="#EC008C" d="M531.1,276.4l7.5-10.5c4.3,2.8,10.7,4.7,15.9,4.7c5.3,0,6.2-0.5,6.2-2.1c0-1.3-1.1-1.9-5.9-2.3    c-11.3-1-20.7-2.5-20.7-15.2c0-9.7,5.8-14.7,20.7-14.7c7.3,0,14.9,1.3,20,4.2l-6.9,11.3c-3.1-1.5-8.4-2.8-12.5-2.8    c-5.3,0-5.9,0.7-5.9,2.1c0,1.2,0.8,1.8,5.4,2.2c11.5,1.2,20.8,2.3,20.8,14.1c0,10.3-5.3,14.9-22,14.9    C545.1,282.4,537,280.5,531.1,276.4z"/>
		<path fill="#EC008C" d="M579.1,237.4h8.4v-0.9c0-11.1,4.2-16.7,18.6-16.7c3.8,0,4.5,0.1,6.3,0.2v12.5h-4.3c-4.4,0-5.3,1.1-5.3,3.9    v0.9h9.6v13h-9.6v31.3h-15.3v-31.3h-8.4V237.4z"/>
		<path fill="#EC008C" d="M618.7,221.7h15.5v12.5h-15.5V221.7z M618.8,237.4h15.3v44.3h-15.3V237.4z"/>
		<path fill="#EC008C" d="M641.1,259.4c0-12.1,4.2-23.1,24-23.1c19.7,0,21,12.7,20.5,28.4h-29.6c0.8,3.6,3.1,5.5,9.1,5.5    c6.6,0,10.6-1.5,13.7-3.9l7.7,9.8c-6.3,4.8-12.3,6.3-21.3,6.3C645.3,282.5,641.1,271.9,641.1,259.4z M655.8,255.7h15.9    c-0.2-3.6-0.7-6.7-7-6.7C658.4,249.1,656.4,251.5,655.8,255.7z"/>
		<path fill="#EC008C" d="M692.5,266.9v-45.2h15.3V265c0,3.2,0.7,4,3.9,4c0.4,0,0.8,0,1.3,0v12.6c-1.2,0.2-4.1,0.3-7,0.3    C697.7,281.8,692.5,278.9,692.5,266.9z"/>
		<path fill="#EC008C" d="M716.3,259.3c0-12.1,4.1-22.9,19.9-22.9c7.3,0,10.7,1.9,12.4,3.4v-18.1H764v59.5l-11.8,1.1l-1.5-4    c-2.6,2.5-7.1,4.3-15,4.3C720.2,282.5,716.3,271.5,716.3,259.3z M748.6,259.3c0-6-1.4-9.1-9.1-9.1c-6.6,0-7.6,4-7.6,9.1    c0,5.2,0.9,10.1,7.6,10.1C746.6,269.4,748.6,265.5,748.6,259.3z"/>
	</g>
	<g>
		<g>
			<path fill="#636466" d="M236.9,347.3l8-11.5c5.7,3.9,13,6.3,20.7,6.3c10.9,0,11.4-1.6,11.4-4.7c0-2.9-3.8-3.6-11.9-4.6     c-16.8-2.1-24.5-5.3-24.5-18.3c0-13.7,8-18.3,25.4-18.3c13.1,0,20.6,3.1,24.9,5.9l-8.7,12.5c-3.3-2.2-10.4-4.4-16.4-4.4     c-8.4,0-9.4,1.2-9.4,4c0,3.2,4.1,3.7,12.7,4.8c14.3,1.9,23.7,4.4,23.7,17.6c0,11.7-5.9,18.7-26.8,18.7     C253.3,355.2,243.1,352.1,236.9,347.3z"/>
			<path fill="#636466" d="M312.5,311.5h-19v-14.5h54.1v14.5h-19v42.8h-16.1V311.5z"/>
			<path fill="#636466" d="M352.9,331.9v-34.8H369v32.6c0,7.8,1.5,11.7,11.7,11.7c10,0,11.7-3.5,11.7-11.7v-32.6h15.5v34.8     c0,10.8-1.3,23.7-27.5,23.7C354.3,355.5,352.9,342.6,352.9,331.9z"/>
			<path fill="#636466" d="M418,297.1h21.5c23.1,0,33.2,5.5,33.2,28.6c0,22.7-10.1,28.7-33.2,28.7H418V297.1z M440.4,340.5     c14.4,0,16.1-4.1,16.1-14.8c0-10.6-1.4-14.2-16.9-14.2H434v29H440.4z"/>
			<path fill="#636466" d="M480.1,297.1h45.6v14.5h-29.6v7h28.9v14h-28.9v8H526v13.8h-45.9V297.1z"/>
			<path fill="#636466" d="M535.1,297.1h17.2l22.4,30.3v-30.3H590v57.3h-14.8l-24.8-33.5v33.5h-15.3V297.1z"/>
			<path fill="#636466" d="M614.9,311.5h-19v-14.5H650v14.5h-19v42.8h-16.1V311.5z"/>
			<path fill="#636466" d="M649.5,347.3l8-11.5c5.7,3.9,13,6.3,20.7,6.3c10.9,0,11.4-1.6,11.4-4.7c0-2.9-3.8-3.6-11.9-4.6     c-16.8-2.1-24.5-5.3-24.5-18.3c0-13.7,8.1-18.3,25.4-18.3c13.1,0,20.6,3.1,24.9,5.9l-8.7,12.5c-3.3-2.2-10.4-4.4-16.4-4.4     c-8.4,0-9.4,1.2-9.4,4c0,3.2,4.1,3.7,12.7,4.8c14.3,1.9,23.7,4.4,23.7,17.6c0,11.7-5.9,18.7-26.8,18.7     C665.9,355.2,655.7,352.1,649.5,347.3z"/>
			<path fill="#636466" d="M711.5,321.1c6.3-2.9,7.3-3.9,7.3-7.3h-8v-16.7h17.3v11.6c0,11.4-1.5,15-13,19.8L711.5,321.1z"/>
			<path fill="#636466" d="M738.2,333.7v-36.7h6.1v36c0,9.7,3.1,16.6,17.6,16.6c14.6,0,17.9-6.7,17.9-16.6v-36h5.9v36.7     c0,11.4-3.6,21.6-23.8,21.6C741.6,355.3,738.2,345,738.2,333.7z"/>
			<path fill="#636466" d="M798.8,297.1h6.7l34.3,47.3v-47.3h5.9v57.3H840l-35.4-48.7v48.7h-5.9V297.1z"/>
			<path fill="#636466" d="M859.6,297.1h5.9v57.3h-5.9V297.1z"/>
			<path fill="#636466" d="M876.3,325.7c0-20.4,10.4-29.5,28.8-29.5c18.4,0,28.9,9.1,28.9,29.5c0,20.5-10.5,29.6-28.9,29.6     C886.8,355.3,876.3,346.2,876.3,325.7z M927.9,325.8c0-15.5-7.2-23.8-22.8-23.8c-15.5,0-22.7,8.4-22.7,23.8     c0,15.5,7.1,23.9,22.7,23.9C920.7,349.7,927.9,341.3,927.9,325.8z"/>
			<path fill="#636466" d="M944.2,297.1h6.7l34.3,47.3v-47.3h5.9v57.3h-5.6L950,305.7v48.7h-5.9V297.1z"/>
		</g>
	</g>
	<g>
		<path fill="#EC008C" d="M170.9,345.7c-43.8-66.6-6.6-168.7,83-227.6c30.7-20.2,64.8-33.1,98.2-38.1c-15.5-18.9-35.4-32-58.5-36.7    C223.9,28.9,151,95.8,131.1,192.4c-11.6,56.1-2.9,113.3,23.3,153.1c20.3,30.8,53.5,51.9,91.1,49.9    C213.1,387.7,187.3,370.7,170.9,345.7z"/>
		<path fill="#EC008C" d="M182.2,267.5c16.1-78.1,114.7-123.9,219.6-102.3c36,7.5,69.3,22.4,96.4,42.5c2.3-24.3-2.5-47.6-15.4-67.3    c-39.1-59.4-138-63.7-220.5-9.4c-47.9,31.5-82.2,78.1-91.7,124.8c-7.5,36.1,1.1,74.5,29.1,99.7    C182.3,327.1,176.2,296.8,182.2,267.5z"/>
		<path fill="#EC008C" d="M212.8,401.3c-78.1-16.1-124-114.6-102.3-219.7c7.4-36,22.4-69.3,42.5-96.3c-24.3-2.3-47.6,2.4-67.3,15.4    c-59.4,39.1-63.6,138-9.4,220.4c31.5,47.9,78.1,82.2,124.7,91.8c36.1,7.5,74.6-1.1,99.8-29.1C272.3,401.2,242,407.4,212.8,401.3z"/>
	</g>
</g>
</svg>