<?xml version="1.0" encoding="UTF-8"?>
<svg xmlns="http://www.w3.org/2000/svg" xmlns:xlink="http://www.w3.org/1999/xlink" viewBox="0 0 1023.93 1024.24">
  <defs>
    <style>
      .cls-1, .cls-2, .cls-3, .cls-4, .cls-5, .cls-6 {
        stroke-width: 0px;
      }

      .cls-2 {
        fill: #cb1a1a;
      }

      .cls-3 {
        fill: #ffde59;
      }

      .cls-4 {
        fill: #fff;
      }

      .cls-5 {
        fill: #ff914d;
      }

      .cls-6 {
        fill: #7d2ae8;
      }
    </style>
  </defs>
  <g id="Layer_1_copy_6" data-name="Layer 1 copy 6">
    <path class="cls-5" d="m155.79,880.1c198.48,192.27,514.12,192.18,712.5-.25l-356.12-356.12-356.37,356.37Z"/>
  </g>
  <g id="Layer_1_copy_5" data-name="Layer 1 copy 5">
    <path class="cls-2" d="m879.8,868.29c192.27-198.48,192.18-514.12-.25-712.5l-356.12,356.12,356.37,356.37Z"/>
  </g>
  <g id="Layer_1_copy_4" data-name="Layer 1 copy 4">
    <path class="cls-3" d="m144.14,155.95c-192.27,198.48-192.18,514.12.25,712.5l356.12-356.12L144.14,155.95Z"/>
  </g>
  <g id="Layer_1_copy_3" data-name="Layer 1 copy 3">
    <path class="cls-6" d="m868.14,144.14c-198.48-192.27-514.12-192.18-712.5.25l356.12,356.12,356.37-356.37Z"/>
  </g>
  <g id="Layer_2" data-name="Layer 2">
    <circle class="cls-1" cx="512.02" cy="512.1" r="136.9"/>
    <image width="256" height="256" transform="translate(407.9 397.1) scale(.75)" xlink:href="swirl.png"/>
  </g>
  <g id="Layer_6" data-name="Layer 6">
    <g>
      <path class="cls-4" d="m328.62,188.84c-.53.44-1.51,1.04-2.94,1.78-1.43.75-3.18,1.41-5.25,1.98-2.07.57-4.36.84-6.87.79-3.83-.09-7.25-.78-10.27-2.08-3.02-1.3-5.57-3.07-7.66-5.32-2.09-2.25-3.69-4.82-4.79-7.73-1.1-2.91-1.65-6.01-1.65-9.31,0-3.7.56-7.09,1.68-10.17,1.12-3.08,2.73-5.75,4.82-7.99,2.09-2.25,4.59-3.98,7.49-5.22,2.91-1.23,6.12-1.85,9.64-1.85,3.26,0,6.14.44,8.65,1.32,2.51.88,4.56,1.83,6.14,2.84l-3.76,9.05c-1.1-.84-2.56-1.71-4.39-2.61-1.83-.9-3.93-1.35-6.31-1.35-1.85,0-3.62.39-5.32,1.16-1.7.77-3.19,1.86-4.49,3.27-1.3,1.41-2.32,3.05-3.07,4.92-.75,1.87-1.12,3.91-1.12,6.11,0,2.33.34,4.47,1.02,6.41.68,1.94,1.66,3.6,2.94,4.99,1.28,1.39,2.81,2.45,4.59,3.2,1.78.75,3.8,1.12,6.04,1.12,2.6,0,4.82-.42,6.67-1.25,1.85-.84,3.26-1.72,4.23-2.64l3.96,8.58Z"/>
      <path class="cls-4" d="m335.22,168.63c0-3.34.64-6.51,1.92-9.51,1.28-2.99,3.05-5.65,5.32-7.96,2.27-2.31,4.9-4.13,7.89-5.45,2.99-1.32,6.21-1.98,9.64-1.98s6.58.66,9.58,1.98c2.99,1.32,5.65,3.14,7.96,5.45,2.31,2.31,4.12,4.96,5.42,7.96,1.3,2.99,1.95,6.16,1.95,9.51s-.65,6.65-1.95,9.64c-1.3,2.99-3.1,5.62-5.42,7.89-2.31,2.27-4.96,4.04-7.96,5.32-2.99,1.28-6.19,1.92-9.58,1.92s-6.65-.64-9.64-1.92c-2.99-1.28-5.62-3.05-7.89-5.32-2.27-2.27-4.04-4.9-5.32-7.89-1.28-2.99-1.92-6.21-1.92-9.64Zm9.91,0c0,2.16.38,4.17,1.16,6.04.77,1.87,1.85,3.52,3.24,4.95,1.39,1.43,2.99,2.54,4.82,3.33,1.83.79,3.82,1.19,5.98,1.19s3.99-.4,5.78-1.19c1.78-.79,3.33-1.9,4.66-3.33,1.32-1.43,2.35-3.08,3.1-4.95.75-1.87,1.12-3.88,1.12-6.04s-.39-4.25-1.16-6.14c-.77-1.89-1.83-3.55-3.17-4.99-1.34-1.43-2.92-2.54-4.72-3.33-1.81-.79-3.76-1.19-5.88-1.19s-4.07.4-5.88,1.19c-1.81.79-3.39,1.9-4.75,3.33-1.36,1.43-2.42,3.09-3.17,4.99-.75,1.89-1.12,3.94-1.12,6.14Z"/>
      <path class="cls-4" d="m394.46,192.86v-50.58h.07l27.01,38.3-4.09-.92,26.94-37.38h.13v50.58h-9.57v-28.99l.59,4.95-16.44,23.38h-.13l-16.9-23.38,1.65-4.56v28.59h-9.24Z"/>
      <path class="cls-4" d="m457.06,192.86v-50.58h.07l27.01,38.3-4.09-.92,26.94-37.38h.13v50.58h-9.58v-28.99l.59,4.95-16.44,23.38h-.13l-16.9-23.38,1.65-4.56v28.59h-9.24Z"/>
      <path class="cls-4" d="m528.24,174.9c0,1.54.46,3.02,1.39,4.42.92,1.41,2.15,2.55,3.67,3.43,1.52.88,3.18,1.32,4.99,1.32,1.98,0,3.74-.44,5.28-1.32,1.54-.88,2.76-2.02,3.67-3.43.9-1.41,1.35-2.88,1.35-4.42v-30.64h9.44v30.84c0,3.57-.88,6.73-2.64,9.48-1.76,2.75-4.14,4.91-7.13,6.47-2.99,1.56-6.32,2.34-9.97,2.34s-6.9-.78-9.87-2.34c-2.97-1.56-5.34-3.72-7.1-6.47-1.76-2.75-2.64-5.91-2.64-9.48v-30.84h9.57v30.64Z"/>
      <path class="cls-4" d="m613.1,194.85l-36.85-33.28,2.84,1.58.2,29.72h-9.71v-50.52h.4l36.05,33.15-2.11-.92-.2-30.31h9.64v50.58h-.26Z"/>
      <path class="cls-4" d="m625.91,144.26h9.58v48.6h-9.58v-48.6Z"/>
      <path class="cls-4" d="m644.73,144.26h32.75v9.25h-11.82v39.36h-9.58v-39.36h-11.36v-9.25Z"/>
      <path class="cls-4" d="m699.33,177.74l-17.9-33.48h11.82l12.55,25.23-2.84.2,12.35-25.42h11.82l-18.23,33.48v15.12h-9.58v-15.12Z"/>
    </g>
    <g>
      <path class="cls-1" d="m684.97,831.01l-21.92,50.52h-.53l-21.92-50.52h11.09l14,35.53-6.93,4.75,16.77-40.28h9.44Zm-14.99,17.56h-14.59l-3.37-8.06h20.93l-2.97,8.06Z"/>
      <path class="cls-1" d="m633.53,831.01v48.6h-14.53c-4.89,0-9.05-.73-12.48-2.18-3.43-1.45-6.2-3.39-8.29-5.81-2.09-2.42-3.62-5.13-4.59-8.12-.97-2.99-1.45-6.01-1.45-9.05,0-3.61.65-6.86,1.95-9.74,1.3-2.88,3.07-5.35,5.32-7.4,2.24-2.05,4.84-3.61,7.79-4.69,2.95-1.08,6.08-1.62,9.38-1.62h16.91Zm-9.58,9.24h-5.68c-2.42,0-4.62.32-6.6.96-1.98.64-3.69,1.57-5.12,2.81-1.43,1.23-2.53,2.78-3.3,4.66-.77,1.87-1.16,4.02-1.16,6.44,0,3.17.52,5.75,1.55,7.76,1.03,2,2.31,3.55,3.83,4.66,1.52,1.1,3.07,1.86,4.65,2.28,1.59.42,2.93.63,4.03.63h7.79v-30.18Z"/>
      <path class="cls-1" d="m578.59,879.61l-14.2-35,5.55,1.12-12.88,33.88h-11.36l22.19-50.85,22.19,50.85h-11.49Z"/>
      <path class="cls-1" d="m540.29,855.24c0,3.35-.64,6.52-1.92,9.51-1.28,2.99-3.05,5.65-5.32,7.96-2.27,2.31-4.9,4.13-7.89,5.45-2.99,1.32-6.21,1.98-9.64,1.98s-6.58-.66-9.58-1.98c-2.99-1.32-5.65-3.14-7.96-5.45-2.31-2.31-4.12-4.96-5.42-7.96-1.3-2.99-1.95-6.16-1.95-9.51s.65-6.65,1.95-9.64c1.3-2.99,3.1-5.62,5.42-7.89,2.31-2.27,4.96-4.04,7.96-5.32,2.99-1.28,6.19-1.92,9.58-1.92s6.65.64,9.64,1.92c2.99,1.28,5.62,3.05,7.89,5.32,2.27,2.27,4.04,4.9,5.32,7.89,1.28,2.99,1.92,6.21,1.92,9.64Zm-9.91,0c0-2.16-.38-4.17-1.16-6.04-.77-1.87-1.85-3.52-3.24-4.95-1.39-1.43-2.99-2.54-4.82-3.33-1.83-.79-3.82-1.19-5.98-1.19s-4,.4-5.78,1.19c-1.78.79-3.33,1.9-4.66,3.33-1.32,1.43-2.35,3.08-3.1,4.95-.75,1.87-1.12,3.88-1.12,6.04s.39,4.25,1.16,6.14c.77,1.89,1.83,3.55,3.17,4.99,1.34,1.43,2.92,2.54,4.72,3.33,1.81.79,3.76,1.19,5.88,1.19s4.07-.4,5.88-1.19c1.81-.79,3.39-1.91,4.75-3.33,1.36-1.43,2.42-3.09,3.17-4.99.75-1.89,1.12-3.94,1.12-6.14Z"/>
      <path class="cls-1" d="m444.6,835.03c.53-.44,1.51-1.04,2.94-1.78,1.43-.75,3.18-1.41,5.25-1.98,2.07-.57,4.36-.84,6.87-.79,3.83.09,7.25.78,10.27,2.08,3.02,1.3,5.57,3.07,7.66,5.32,2.09,2.25,3.69,4.82,4.79,7.73,1.1,2.91,1.65,6.01,1.65,9.31,0,3.7-.56,7.09-1.68,10.17-1.12,3.08-2.73,5.74-4.82,7.99-2.09,2.24-4.59,3.98-7.5,5.22-2.91,1.23-6.12,1.85-9.64,1.85-3.26,0-6.14-.44-8.65-1.32-2.51-.88-4.56-1.83-6.14-2.84l3.76-9.05c1.1.83,2.57,1.71,4.39,2.61,1.83.9,3.93,1.35,6.31,1.35,1.85,0,3.62-.39,5.32-1.16,1.7-.77,3.19-1.86,4.49-3.27,1.3-1.41,2.32-3.05,3.07-4.92.75-1.87,1.12-3.91,1.12-6.11,0-2.33-.34-4.47-1.02-6.41-.68-1.94-1.66-3.6-2.94-4.99-1.28-1.39-2.81-2.45-4.59-3.2-1.78-.75-3.8-1.12-6.04-1.12-2.6,0-4.82.42-6.67,1.25s-3.26,1.72-4.23,2.64l-3.96-8.58Z"/>
      <path class="cls-1" d="m440.51,831.01l-21.92,50.52h-.53l-21.92-50.52h11.09l14,35.53-6.93,4.75,16.77-40.28h9.44Zm-14.99,17.56h-14.59l-3.37-8.06h20.93l-2.97,8.06Z"/>
      <path class="cls-1" d="m355.92,835.03c.53-.44,1.51-1.04,2.94-1.78,1.43-.75,3.18-1.41,5.25-1.98,2.07-.57,4.36-.84,6.87-.79,3.83.09,7.25.78,10.27,2.08,3.02,1.3,5.57,3.07,7.66,5.32,2.09,2.25,3.69,4.82,4.79,7.73,1.1,2.91,1.65,6.01,1.65,9.31,0,3.7-.56,7.09-1.68,10.17-1.12,3.08-2.73,5.74-4.82,7.99-2.09,2.24-4.59,3.98-7.5,5.22-2.91,1.23-6.12,1.85-9.64,1.85-3.26,0-6.14-.44-8.65-1.32-2.51-.88-4.56-1.83-6.14-2.84l3.76-9.05c1.1.83,2.57,1.71,4.39,2.61,1.83.9,3.93,1.35,6.31,1.35,1.85,0,3.62-.39,5.32-1.16,1.7-.77,3.19-1.86,4.49-3.27,1.3-1.41,2.32-3.05,3.07-4.92.75-1.87,1.12-3.91,1.12-6.11,0-2.33-.34-4.47-1.02-6.41-.68-1.94-1.66-3.6-2.94-4.99-1.28-1.39-2.81-2.45-4.59-3.2-1.78-.75-3.8-1.12-6.04-1.12-2.6,0-4.82.42-6.67,1.25s-3.26,1.72-4.23,2.64l-3.96-8.58Z"/>
      <path class="cls-1" d="m333.73,846.13l17.9,33.48h-11.82l-12.55-25.23,2.84-.2-12.35,25.42h-11.82l18.23-33.48v-15.12h9.58v15.12Z"/>
    </g>
    <g>
      <path class="cls-4" d="m893.91,305.81v30.38h-9.25v-20.8h-11.03v18.03h-9.24v-18.03h-19.08v-9.57h48.6Z"/>
      <path class="cls-4" d="m845.31,335.32l50.52,21.92v.53l-50.52,21.92v-11.09l35.53-14,4.75,6.93-40.28-16.77v-9.44Zm17.56,14.99v14.59l-8.06,3.37v-20.93l8.06,2.97Z"/>
      <path class="cls-4" d="m845.31,386.77h50.58v.07l-38.3,27.01.92-4.09,37.38,26.94v.13h-50.58v-9.58h28.99l-4.95.59-23.38-16.44v-.13l23.38-16.9,4.56,1.65h-28.59v-9.24Z"/>
      <path class="cls-4" d="m893.91,449.37v9.57h-48.6v-9.57h48.6Z"/>
      <path class="cls-4" d="m893.91,471.49v9.57h-39.36v22.85h-9.24v-32.42h48.6Z"/>
      <path class="cls-4" d="m893.91,513.82v9.58h-48.6v-9.58h48.6Z"/>
      <path class="cls-4" d="m845.31,530.45l50.52,21.92v.53l-50.52,21.92v-11.09l35.53-14,4.75,6.93-40.28-16.77v-9.44Zm17.56,14.99v14.59l-8.06,3.37v-20.93l8.06,2.97Z"/>
      <path class="cls-4" d="m893.91,596.62c0,3.04-.39,5.75-1.16,8.12-.77,2.38-1.87,4.37-3.3,5.98-1.43,1.61-3.15,2.83-5.15,3.66s-4.26,1.25-6.77,1.25c-1.98,0-3.96-.3-5.94-.89-1.98-.59-3.79-1.56-5.41-2.91-1.63-1.34-2.94-3.12-3.93-5.32-.99-2.2-1.49-4.93-1.49-8.19v-6.87h-15.45v-9.58h48.6v14.73Zm-29.85,10.63l-18.75,12.02v-11.16l18.49-12.28.26,11.42Zm5.94-8.98c0,1.45.24,2.66.73,3.63.48.97,1.1,1.73,1.85,2.28.75.55,1.53.95,2.34,1.19.81.24,1.57.36,2.28.36.53,0,1.2-.08,2.01-.23.81-.16,1.64-.47,2.48-.96s1.54-1.22,2.11-2.21.86-2.32.86-4v-6.87h-14.66v6.8Z"/>
      <path class="cls-4" d="m893.91,627.2v9.58h-48.6v-9.58h48.6Z"/>
      <path class="cls-4" d="m893.91,646.01v32.75h-9.25v-11.82h-39.36v-9.58h39.36v-11.36h9.25Z"/>
      <path class="cls-4" d="m860.43,700.62l33.48-17.9v11.82l-25.23,12.55-.2-2.84,25.42,12.35v11.82l-33.48-18.23h-15.12v-9.58h15.12Z"/>
    </g>
    <g>
      <path class="cls-1" d="m151.32,641.07c-1.01,1.85-1.85,3.73-2.51,5.65-.66,1.91-.99,3.71-.99,5.38,0,2.07.42,3.7,1.25,4.89.84,1.19,2.09,1.78,3.76,1.78,1.15,0,2.17-.45,3.07-1.35.9-.9,1.71-2.07,2.41-3.5.71-1.43,1.34-2.92,1.92-4.46.53-1.41,1.16-2.81,1.88-4.19.73-1.39,1.63-2.63,2.71-3.73,1.08-1.1,2.42-1.98,4.03-2.64,1.61-.66,3.58-.99,5.91-.99,2.47,0,4.75.64,6.87,1.92,2.11,1.28,3.82,3.15,5.12,5.61,1.3,2.47,1.95,5.5,1.95,9.11,0,1.85-.19,3.73-.56,5.65-.37,1.91-.95,3.8-1.72,5.65-.77,1.85-1.75,3.63-2.94,5.35l-7.46-4.23c.84-1.14,1.58-2.39,2.21-3.73.64-1.34,1.13-2.7,1.49-4.06.35-1.37.53-2.62.53-3.76s-.17-2.3-.5-3.47c-.33-1.17-.89-2.13-1.68-2.91-.79-.77-1.89-1.16-3.3-1.16-.97,0-1.85.32-2.64.96-.79.64-1.52,1.5-2.18,2.58-.66,1.08-1.23,2.26-1.72,3.53-.57,1.5-1.23,3.04-1.98,4.62-.75,1.58-1.66,3.07-2.74,4.46-1.08,1.39-2.42,2.51-4.03,3.37-1.61.86-3.58,1.29-5.91,1.29-2.82,0-5.26-.63-7.33-1.88-2.07-1.26-3.71-3.03-4.92-5.32-1.21-2.29-1.88-4.93-2.01-7.92,0-3.92.46-7.1,1.39-9.54s2.03-4.63,3.3-6.57l7.33,3.63Z"/>
      <path class="cls-1" d="m170.2,619.94c1.54,0,3.02-.46,4.42-1.39,1.41-.92,2.55-2.15,3.43-3.66.88-1.52,1.32-3.18,1.32-4.99,0-1.98-.44-3.74-1.32-5.28-.88-1.54-2.02-2.76-3.43-3.66-1.41-.9-2.88-1.35-4.42-1.35h-30.64v-9.44h30.84c3.57,0,6.72.88,9.48,2.64,2.75,1.76,4.91,4.14,6.47,7.13s2.34,6.32,2.34,9.97-.78,6.9-2.34,9.87-3.72,5.34-6.47,7.1c-2.75,1.76-5.91,2.64-9.48,2.64h-30.84v-9.58h30.64Z"/>
      <path class="cls-1" d="m139.56,563.88c0-4.01.67-7.4,2.01-10.17,1.34-2.77,3.24-4.89,5.68-6.34,2.44-1.45,5.34-2.18,8.68-2.18,1.98,0,3.97.3,5.98.89,2,.59,3.82,1.54,5.45,2.84,1.63,1.3,2.94,3.04,3.93,5.22.99,2.18,1.49,4.85,1.49,8.02v6.87h15.39v9.57h-48.6v-14.72Zm23.91-1.65c0-1.45-.25-2.66-.76-3.63-.51-.97-1.14-1.73-1.92-2.28-.77-.55-1.57-.95-2.41-1.19-.84-.24-1.56-.36-2.18-.36-.48,0-1.13.08-1.95.23-.81.16-1.64.47-2.48.96-.84.48-1.54,1.22-2.11,2.21-.57.99-.86,2.32-.86,4v6.87h14.66v-6.8Z"/>
      <path class="cls-1" d="m139.56,521.88c0-4,.67-7.4,2.01-10.17,1.34-2.77,3.24-4.89,5.68-6.34,2.44-1.45,5.34-2.18,8.68-2.18,1.98,0,3.97.3,5.98.89,2,.59,3.82,1.54,5.45,2.84,1.63,1.3,2.94,3.04,3.93,5.22.99,2.18,1.49,4.85,1.49,8.02v6.87h15.39v9.58h-48.6v-14.73Zm23.91-1.65c0-1.45-.25-2.66-.76-3.63-.51-.97-1.14-1.73-1.92-2.28-.77-.55-1.57-.95-2.41-1.19-.84-.24-1.56-.36-2.18-.36-.48,0-1.13.08-1.95.23-.81.15-1.64.47-2.48.96-.84.49-1.54,1.22-2.11,2.21-.57.99-.86,2.32-.86,3.99v6.87h14.66v-6.8Z"/>
      <path class="cls-1" d="m163.93,497.58c-3.34,0-6.51-.64-9.51-1.92-2.99-1.28-5.65-3.05-7.96-5.32-2.31-2.27-4.13-4.9-5.45-7.89-1.32-2.99-1.98-6.21-1.98-9.64s.66-6.58,1.98-9.58c1.32-2.99,3.14-5.65,5.45-7.96,2.31-2.31,4.96-4.12,7.96-5.42,2.99-1.3,6.16-1.95,9.51-1.95s6.65.65,9.64,1.95c3,1.3,5.62,3.1,7.89,5.42,2.27,2.31,4.04,4.96,5.32,7.96,1.28,2.99,1.92,6.19,1.92,9.58s-.64,6.65-1.92,9.64c-1.28,2.99-3.05,5.62-5.32,7.89-2.27,2.27-4.9,4.04-7.89,5.32-2.99,1.28-6.21,1.92-9.64,1.92Zm0-9.91c2.16,0,4.17-.38,6.04-1.16,1.87-.77,3.52-1.85,4.95-3.24s2.54-2.99,3.33-4.82c.79-1.83,1.19-3.82,1.19-5.98s-.4-4-1.19-5.78c-.79-1.78-1.9-3.33-3.33-4.66s-3.08-2.35-4.95-3.1c-1.87-.75-3.88-1.12-6.04-1.12s-4.25.39-6.14,1.16c-1.89.77-3.55,1.83-4.99,3.17-1.43,1.34-2.54,2.92-3.33,4.72-.79,1.81-1.19,3.76-1.19,5.88s.4,4.07,1.19,5.88c.79,1.81,1.91,3.39,3.33,4.75,1.43,1.36,3.09,2.42,4.99,3.17,1.89.75,3.94,1.12,6.14,1.12Z"/>
      <path class="cls-1" d="m139.56,423.62c0-3.04.39-5.75,1.16-8.12.77-2.38,1.87-4.37,3.3-5.98,1.43-1.61,3.15-2.83,5.15-3.66,2-.84,4.26-1.25,6.77-1.25,1.98,0,3.96.3,5.94.89,1.98.59,3.79,1.56,5.42,2.91s2.94,3.12,3.93,5.32c.99,2.2,1.49,4.93,1.49,8.19v6.87h15.45v9.58h-48.6v-14.73Zm23.91-1.65c0-1.45-.24-2.66-.73-3.63s-1.1-1.73-1.85-2.28c-.75-.55-1.53-.95-2.34-1.19-.81-.24-1.57-.36-2.28-.36-.53,0-1.2.08-2.01.23-.81.16-1.64.47-2.48.96-.84.48-1.54,1.22-2.11,2.21-.57.99-.86,2.32-.86,4v6.87h14.66v-6.8Zm5.94-8.98l18.75-12.02v11.16l-18.49,12.28-.26-11.42Z"/>
      <path class="cls-1" d="m139.56,397.34v-32.75h9.25v11.82h39.36v9.58h-39.36v11.36h-9.25Z"/>
    </g>
  </g>
</svg>