<?xml version="1.0" encoding="UTF-8"?>
<svg id="Layer_1" data-name="Layer 1" xmlns="http://www.w3.org/2000/svg" viewBox="0 0 39.73 513.18">
  <defs>
    <style>
      .cls-1, .cls-2 {
        fill: none;
        stroke: #004aad;
        stroke-miterlimit: 10;
        stroke-width: 3px;
      }

      .cls-2 {
        stroke-dasharray: 0 0 8.05 2.01;
      }
    </style>
  </defs>
  <path class="cls-1" d="m19,.47c-.43,1.31-.83,2.58-1.2,3.82"/>
  <path class="cls-2" d="m17.26,6.23c-5.29,19.29-2.39,30.44,1.75,37.22,2.02,3.31,3.61,4.39,6.56,9.56,1.15,2.03,9.15,16.37,8.44,29.78-.86,16.28-14.32,16.14-21.11,36.67-1.78,5.37-3.34,17.9,5.66,27.42,13.87,14.67-13.22,18.92,10.12,31.25,5.48,2.9,10.71,14.08,9.34,19.58-2.89,11.56-26.62.87-33.17,15.75-4,9.08,16.32,20.27,12.17,32.33-1.59,4.63-22.6,15.66-13,31.89,8.62,14.56,22.37,11.45,27.56,25.11,3.2,8.44-8.04,16.76-3.56,30,2.79,8.25-11.89,19.51-14.22,31.56-3.79,19.58,10.86,22.93,10.44,46.44-.38,21.33-12.61,27.74-7.56,44.89,2.81,9.53,7.48,10.58,10,20,3.18,11.88-.68,23.53-5.24,32.38"/>
  <path class="cls-1" d="m20.97,508.93c-.65,1.22-1.31,2.39-1.96,3.48"/>
</svg>