<?xml version="1.0" encoding="UTF-8"?>
<svg xmlns="http://www.w3.org/2000/svg" viewBox="0 0 1023.93 1024.24">
  <defs>
    <style>
      .cls-1, .cls-2, .cls-3, .cls-4, .cls-5, .cls-6 {
        stroke-width: 0px;
      }

      .cls-2 {
        fill: #cb1a1a;
      }

      .cls-3 {
        fill: #ffde59;
      }

      .cls-4 {
        fill: #fff;
      }

      .cls-5 {
        fill: #ff914d;
      }

      .cls-6 {
        fill: #7d2ae8;
      }
    </style>
  </defs>
  <g id="Layer_1_copy_6" data-name="Layer 1 copy 6">
    <path class="cls-5" d="m155.79,880.1c198.48,192.27,514.12,192.18,712.5-.25l-356.12-356.12-356.37,356.37Z"/>
  </g>
  <g id="Layer_1_copy_5" data-name="Layer 1 copy 5">
    <path class="cls-2" d="m879.8,868.29c192.27-198.48,192.18-514.12-.25-712.5l-356.12,356.12,356.37,356.37Z"/>
  </g>
  <g id="Layer_1_copy_4" data-name="Layer 1 copy 4">
    <path class="cls-3" d="m144.14,155.95c-192.27,198.48-192.18,514.12.25,712.5l356.12-356.12L144.14,155.95Z"/>
  </g>
  <g id="Layer_1_copy_3" data-name="Layer 1 copy 3">
    <path class="cls-6" d="m868.14,144.14c-198.48-192.27-514.12-192.18-712.5.25l356.12,356.12,356.37-356.37Z"/>
  </g>
  <g id="Layer_2" data-name="Layer 2">
    <circle class="cls-1" cx="512.02" cy="512.1" r="136.9"/>
  </g>
  <g id="Layer_6" data-name="Layer 6">
    <g>
      <path class="cls-4" d="m323.95,144.26c5.06,0,9.09,1.02,12.08,3.07,2.99,2.05,4.49,5.1,4.49,9.15,0,2.99-.74,5.49-2.21,7.49-1.48,2-3.48,3.5-6.01,4.49-2.53.99-5.43,1.49-8.68,1.49l-1.52-5.15c4.01,0,7.56.55,10.67,1.65,3.1,1.1,5.56,2.67,7.36,4.72,1.8,2.05,2.71,4.5,2.71,7.36,0,2.64-.47,4.88-1.42,6.7-.95,1.83-2.22,3.3-3.83,4.42-1.61,1.12-3.42,1.94-5.45,2.44-2.03.51-4.12.76-6.27.76h-16.18v-48.6h14.26Zm1.12,19.88c1.89,0,3.29-.57,4.19-1.72.9-1.14,1.35-2.44,1.35-3.9,0-1.67-.56-2.93-1.68-3.76-1.12-.84-2.63-1.25-4.52-1.25h-5.15v10.63h5.81Zm.33,19.81c1.41,0,2.69-.19,3.83-.56,1.14-.37,2.05-.97,2.71-1.78.66-.81.99-1.84.99-3.07,0-1.41-.4-2.48-1.19-3.2-.79-.73-1.82-1.23-3.07-1.52-1.25-.29-2.56-.43-3.93-.43h-5.48v10.57h6.14Z"/>
      <path class="cls-4" d="m352.41,144.26h33.15v9.25h-23.57v10.37h20.87v9.25h-20.87v10.5h24.5v9.24h-34.07v-48.6Z"/>
      <path class="cls-4" d="m396.39,144.26h9.57v39.36h22.85v9.24h-32.42v-48.6Z"/>
      <path class="cls-4" d="m434.43,168.63c0-3.34.64-6.51,1.92-9.51,1.28-2.99,3.05-5.65,5.32-7.96,2.27-2.31,4.9-4.13,7.89-5.45,2.99-1.32,6.21-1.98,9.64-1.98s6.58.66,9.58,1.98c2.99,1.32,5.65,3.14,7.96,5.45,2.31,2.31,4.12,4.96,5.42,7.96,1.3,2.99,1.95,6.16,1.95,9.51s-.65,6.65-1.95,9.64c-1.3,2.99-3.1,5.62-5.42,7.89-2.31,2.27-4.96,4.04-7.96,5.32-2.99,1.28-6.19,1.92-9.58,1.92s-6.65-.64-9.64-1.92c-2.99-1.28-5.62-3.05-7.89-5.32-2.27-2.27-4.04-4.9-5.32-7.89-1.28-2.99-1.92-6.21-1.92-9.64Zm9.91,0c0,2.16.38,4.17,1.16,6.04.77,1.87,1.85,3.52,3.24,4.95,1.39,1.43,2.99,2.54,4.82,3.33,1.83.79,3.82,1.19,5.98,1.19s3.99-.4,5.78-1.19c1.78-.79,3.33-1.9,4.66-3.33,1.32-1.43,2.35-3.08,3.1-4.95.75-1.87,1.12-3.88,1.12-6.04s-.39-4.25-1.16-6.14c-.77-1.89-1.83-3.55-3.17-4.99-1.34-1.43-2.92-2.54-4.72-3.33-1.81-.79-3.76-1.19-5.88-1.19s-4.07.4-5.88,1.19c-1.81.79-3.39,1.9-4.75,3.33-1.36,1.43-2.42,3.09-3.17,4.99-.75,1.89-1.12,3.94-1.12,6.14Z"/>
      <path class="cls-4" d="m537.17,194.85l-36.85-33.28,2.84,1.58.2,29.72h-9.71v-50.52h.4l36.05,33.15-2.11-.92-.2-30.31h9.64v50.58h-.26Z"/>
      <path class="cls-4" d="m589.41,187.98c-.57.62-1.48,1.24-2.71,1.88-1.23.64-2.65,1.22-4.26,1.75-1.61.53-3.25.96-4.92,1.29-1.67.33-3.26.5-4.75.5-3.96,0-7.53-.58-10.7-1.75-3.17-1.17-5.88-2.79-8.12-4.89-2.25-2.09-3.96-4.57-5.15-7.43-1.19-2.86-1.78-5.99-1.78-9.38,0-4.45.67-8.31,2.01-11.59,1.34-3.28,3.17-6.01,5.48-8.19,2.31-2.18,4.97-3.8,7.99-4.85,3.01-1.06,6.17-1.58,9.48-1.58,3.12,0,5.99.34,8.58,1.02,2.6.68,4.8,1.53,6.6,2.54l-3.1,8.92c-.79-.44-1.85-.88-3.17-1.32-1.32-.44-2.66-.8-4.03-1.09-1.37-.29-2.58-.43-3.63-.43-2.64,0-4.98.33-7,.99-2.03.66-3.73,1.65-5.12,2.97-1.39,1.32-2.43,2.96-3.14,4.92-.71,1.96-1.06,4.24-1.06,6.83,0,2.29.4,4.35,1.19,6.17.79,1.83,1.9,3.38,3.33,4.66,1.43,1.28,3.12,2.25,5.08,2.91,1.96.66,4.13.99,6.5.99,1.36,0,2.62-.1,3.76-.3,1.14-.2,2.11-.52,2.91-.96v-5.88h-8.39v-9.25h18.09v20.54Z"/>
      <path class="cls-4" d="m600.3,144.26h9.58v48.6h-9.58v-48.6Z"/>
      <path class="cls-4" d="m665.94,194.85l-36.85-33.28,2.84,1.58.2,29.72h-9.71v-50.52h.4l36.05,33.15-2.11-.92-.2-30.31h9.64v50.58h-.26Z"/>
      <path class="cls-4" d="m718.17,187.98c-.57.62-1.48,1.24-2.71,1.88-1.23.64-2.65,1.22-4.26,1.75-1.61.53-3.25.96-4.92,1.29-1.67.33-3.26.5-4.75.5-3.96,0-7.53-.58-10.7-1.75-3.17-1.17-5.88-2.79-8.12-4.89-2.25-2.09-3.96-4.57-5.15-7.43-1.19-2.86-1.78-5.99-1.78-9.38,0-4.45.67-8.31,2.01-11.59,1.34-3.28,3.17-6.01,5.48-8.19,2.31-2.18,4.97-3.8,7.99-4.85,3.01-1.06,6.17-1.58,9.48-1.58,3.12,0,5.99.34,8.58,1.02,2.6.68,4.8,1.53,6.6,2.54l-3.1,8.92c-.79-.44-1.85-.88-3.17-1.32-1.32-.44-2.66-.8-4.03-1.09-1.37-.29-2.58-.43-3.63-.43-2.64,0-4.98.33-7,.99-2.03.66-3.73,1.65-5.12,2.97-1.39,1.32-2.43,2.96-3.14,4.92-.71,1.96-1.06,4.24-1.06,6.83,0,2.29.4,4.35,1.19,6.17.79,1.83,1.9,3.38,3.33,4.66,1.43,1.28,3.12,2.25,5.08,2.91,1.96.66,4.13.99,6.5.99,1.36,0,2.62-.1,3.76-.3,1.14-.2,2.11-.52,2.91-.96v-5.88h-8.39v-9.25h18.09v20.54Z"/>
    </g>
    <g>
      <path class="cls-1" d="m623.49,879.61h-9.57v-48.6h9.57v48.6Z"/>
      <path class="cls-1" d="m601.36,831.01v50.58h-.07l-27.01-38.3,4.09.92-26.94,37.38h-.13v-50.58h9.58v28.99l-.59-4.95,16.44-23.38h.13l16.9,23.38-1.65,4.56v-28.59h9.24Z"/>
      <path class="cls-1" d="m524.04,879.61c-4.01,0-7.4-.67-10.17-2.01-2.77-1.34-4.89-3.24-6.34-5.68-1.45-2.44-2.18-5.34-2.18-8.68,0-1.98.3-3.97.89-5.98.59-2,1.54-3.82,2.84-5.45,1.3-1.63,3.04-2.94,5.22-3.93,2.18-.99,4.85-1.48,8.02-1.48h6.87v-15.39h9.58v48.6h-14.73Zm-1.65-23.9c-1.45,0-2.66.25-3.63.76-.97.51-1.73,1.14-2.28,1.92-.55.77-.95,1.57-1.19,2.41-.24.84-.36,1.56-.36,2.18,0,.48.08,1.13.23,1.95s.47,1.64.96,2.48,1.22,1.54,2.21,2.11c.99.57,2.32.86,4,.86h6.87v-14.66h-6.8Z"/>
      <path class="cls-1" d="m507.2,831.01l-21.92,50.52h-.53l-21.92-50.52h11.09l14,35.53-6.93,4.75,16.77-40.28h9.44Zm-14.99,17.56h-14.59l-3.37-8.06h20.93l-2.97,8.06Z"/>
      <path class="cls-1" d="m422.61,835.03c.53-.44,1.51-1.04,2.94-1.78,1.43-.75,3.18-1.41,5.25-1.98,2.07-.57,4.36-.84,6.87-.79,3.83.09,7.25.78,10.27,2.08,3.02,1.3,5.57,3.07,7.66,5.32,2.09,2.25,3.69,4.82,4.79,7.73,1.1,2.91,1.65,6.01,1.65,9.31,0,3.7-.56,7.09-1.68,10.17-1.12,3.08-2.73,5.74-4.82,7.99-2.09,2.24-4.59,3.98-7.49,5.22-2.91,1.23-6.12,1.85-9.64,1.85-3.26,0-6.14-.44-8.65-1.32-2.51-.88-4.56-1.83-6.14-2.84l3.76-9.05c1.1.83,2.57,1.71,4.39,2.61,1.83.9,3.93,1.35,6.31,1.35,1.85,0,3.62-.39,5.32-1.16,1.7-.77,3.19-1.86,4.49-3.27,1.3-1.41,2.32-3.05,3.07-4.92.75-1.87,1.12-3.91,1.12-6.11,0-2.33-.34-4.47-1.02-6.41-.68-1.94-1.66-3.6-2.94-4.99-1.28-1.39-2.81-2.45-4.59-3.2-1.78-.75-3.8-1.12-6.04-1.12-2.6,0-4.82.42-6.67,1.25-1.85.84-3.26,1.72-4.23,2.64l-3.96-8.58Z"/>
      <path class="cls-1" d="m416.34,879.61h-32.75v-9.25h11.82v-39.36h9.58v39.36h11.36v9.25Z"/>
    </g>
    <g>
      <path class="cls-4" d="m893.91,263.81v33.15h-9.25v-23.57h-10.37v20.87h-9.25v-20.87h-10.5v24.5h-9.24v-34.07h48.6Z"/>
      <path class="cls-4" d="m843.33,351.3l33.28-36.85-1.59,2.84-29.71.2v-9.71h50.52v.4l-33.15,36.05.92-2.11,30.31-.2v9.64h-50.58v-.26Z"/>
      <path class="cls-4" d="m850.19,403.54c-.62-.57-1.24-1.48-1.88-2.71-.64-1.23-1.22-2.65-1.75-4.26-.53-1.61-.96-3.25-1.29-4.92-.33-1.67-.5-3.26-.5-4.75,0-3.96.58-7.53,1.75-10.7,1.17-3.17,2.79-5.88,4.89-8.12,2.09-2.25,4.57-3.96,7.43-5.15,2.86-1.19,5.99-1.78,9.38-1.78,4.45,0,8.31.67,11.59,2.01,3.28,1.34,6.01,3.17,8.19,5.48,2.18,2.31,3.8,4.97,4.85,7.99,1.06,3.02,1.58,6.17,1.58,9.48,0,3.13-.34,5.99-1.02,8.58-.68,2.6-1.53,4.8-2.54,6.6l-8.92-3.1c.44-.79.88-1.85,1.32-3.17.44-1.32.8-2.66,1.09-4.03.29-1.37.43-2.58.43-3.63,0-2.64-.33-4.98-.99-7-.66-2.03-1.65-3.73-2.97-5.12-1.32-1.39-2.96-2.43-4.92-3.14-1.96-.71-4.24-1.06-6.83-1.06-2.29,0-4.35.4-6.17,1.19s-3.38,1.9-4.65,3.33c-1.28,1.43-2.25,3.12-2.91,5.08-.66,1.96-.99,4.13-.99,6.5,0,1.36.1,2.62.3,3.76.2,1.14.52,2.11.96,2.91h5.88v-8.39h9.25v18.09h-20.54Z"/>
      <path class="cls-4" d="m845.31,408.95l50.52,21.92v.53l-50.52,21.92v-11.09l35.53-14,4.75,6.93-40.28-16.77v-9.44Zm17.56,14.99v14.59l-8.06,3.37v-20.93l8.06,2.97Z"/>
      <path class="cls-4" d="m850.19,497.83c-.62-.57-1.24-1.48-1.88-2.71s-1.22-2.65-1.75-4.26c-.53-1.61-.96-3.25-1.29-4.92-.33-1.67-.5-3.26-.5-4.76,0-3.96.58-7.53,1.75-10.7,1.17-3.17,2.79-5.88,4.89-8.12,2.09-2.25,4.57-3.96,7.43-5.15,2.86-1.19,5.99-1.78,9.38-1.78,4.45,0,8.31.67,11.59,2.01,3.28,1.34,6.01,3.17,8.19,5.48s3.8,4.97,4.85,7.99,1.58,6.17,1.58,9.48c0,3.12-.34,5.99-1.02,8.58s-1.53,4.8-2.54,6.6l-8.92-3.1c.44-.79.88-1.85,1.32-3.17.44-1.32.8-2.66,1.09-4.03.29-1.37.43-2.58.43-3.63,0-2.64-.33-4.97-.99-7s-1.65-3.73-2.97-5.12c-1.32-1.39-2.96-2.43-4.92-3.14-1.96-.71-4.24-1.06-6.83-1.06-2.29,0-4.35.4-6.17,1.19-1.83.79-3.38,1.9-4.65,3.33-1.28,1.43-2.25,3.12-2.91,5.08s-.99,4.13-.99,6.51c0,1.36.1,2.62.3,3.76.2,1.14.52,2.11.96,2.9h5.88v-8.38h9.25v18.09h-20.54Z"/>
      <path class="cls-4" d="m893.91,508.73v33.15h-9.25v-23.57h-10.37v20.87h-9.25v-20.87h-10.5v24.5h-9.24v-34.07h48.6Z"/>
      <path class="cls-4" d="m845.31,552.71h50.58v.07l-38.3,27.01.92-4.09,37.38,26.94v.13h-50.58v-9.58h28.99l-4.95.59-23.38-16.44v-.13l23.38-16.91,4.56,1.65h-28.59v-9.25Z"/>
      <path class="cls-4" d="m893.91,615.31v33.15h-9.25v-23.57h-10.37v20.87h-9.25v-20.87h-10.5v24.5h-9.24v-34.07h48.6Z"/>
      <path class="cls-4" d="m843.33,702.8l33.28-36.85-1.59,2.84-29.71.2v-9.71h50.52v.4l-33.15,36.05.92-2.11,30.31-.2v9.64h-50.58v-.26Z"/>
      <path class="cls-4" d="m893.91,712.31v32.75h-9.25v-11.82h-39.36v-9.58h39.36v-11.36h9.25Z"/>
    </g>
    <g>
      <path class="cls-1" d="m139.56,736.02v-9.57h48.6v9.57h-48.6Z"/>
      <path class="cls-1" d="m190.14,670.39l-33.28,36.85,1.58-2.84,29.72-.2v9.71h-50.52v-.4l33.15-36.05-.92,2.11-30.31.2v-9.64h50.58v.26Z"/>
      <path class="cls-1" d="m139.56,660.88v-32.75h9.25v11.82h39.36v9.58h-39.36v11.36h-9.25Z"/>
      <path class="cls-1" d="m139.56,618.88v-33.15h9.25v23.57h10.37v-20.87h9.25v20.87h10.5v-24.5h9.24v34.07h-48.6Z"/>
      <path class="cls-1" d="m139.56,560.18c0-3.04.39-5.75,1.16-8.12.77-2.38,1.87-4.37,3.3-5.98,1.43-1.61,3.15-2.83,5.15-3.67,2-.84,4.26-1.25,6.77-1.25,1.98,0,3.96.3,5.94.89,1.98.59,3.79,1.56,5.42,2.91,1.63,1.34,2.94,3.12,3.93,5.32.99,2.2,1.49,4.93,1.49,8.19v6.87h15.45v9.58h-48.6v-14.73Zm23.9-1.65c0-1.45-.24-2.66-.73-3.63-.48-.97-1.1-1.73-1.85-2.28-.75-.55-1.53-.95-2.34-1.19-.81-.24-1.57-.36-2.28-.36-.53,0-1.2.08-2.01.23-.81.15-1.64.47-2.48.96-.84.48-1.54,1.22-2.11,2.21-.57.99-.86,2.32-.86,4v6.87h14.66v-6.8Zm5.94-8.98l18.75-12.02v11.16l-18.49,12.28-.26-11.42Z"/>
      <path class="cls-1" d="m188.16,535.08l-50.52-21.92v-.53l50.52-21.92v11.09l-35.53,14-4.75-6.93,40.28,16.77v9.44Zm-17.56-14.99v-14.59l8.06-3.37v20.93l-8.06-2.97Z"/>
      <path class="cls-1" d="m184.14,450.49c.44.53,1.04,1.51,1.78,2.94.75,1.43,1.41,3.18,1.98,5.25.57,2.07.84,4.36.79,6.87-.09,3.83-.78,7.25-2.08,10.27-1.3,3.02-3.07,5.57-5.32,7.66-2.25,2.09-4.82,3.69-7.73,4.79-2.91,1.1-6.01,1.65-9.31,1.65-3.7,0-7.09-.56-10.17-1.68-3.08-1.12-5.75-2.73-7.99-4.82s-3.98-4.59-5.22-7.5c-1.23-2.91-1.85-6.12-1.85-9.64,0-3.26.44-6.14,1.32-8.65.88-2.51,1.83-4.56,2.84-6.14l9.05,3.76c-.84,1.1-1.71,2.57-2.61,4.39-.9,1.83-1.35,3.93-1.35,6.31,0,1.85.39,3.62,1.16,5.32.77,1.7,1.86,3.19,3.27,4.49,1.41,1.3,3.05,2.32,4.92,3.07,1.87.75,3.91,1.12,6.11,1.12,2.33,0,4.47-.34,6.41-1.02,1.94-.68,3.6-1.66,4.99-2.94,1.39-1.28,2.45-2.81,3.2-4.59.75-1.78,1.12-3.8,1.12-6.04,0-2.6-.42-4.82-1.25-6.67-.84-1.85-1.72-3.26-2.64-4.23l8.58-3.96Z"/>
      <path class="cls-1" d="m139.56,444.22v-32.75h9.25v11.82h39.36v9.58h-39.36v11.36h-9.25Z"/>
      <path class="cls-1" d="m139.56,402.22v-9.58h48.6v9.58h-48.6Z"/>
      <path class="cls-1" d="m163.93,383.07c-3.34,0-6.51-.64-9.51-1.92-2.99-1.28-5.65-3.05-7.96-5.32s-4.13-4.9-5.45-7.89c-1.32-2.99-1.98-6.21-1.98-9.64s.66-6.58,1.98-9.58c1.32-2.99,3.14-5.65,5.45-7.96s4.96-4.12,7.96-5.42c2.99-1.3,6.16-1.95,9.51-1.95s6.65.65,9.64,1.95c2.99,1.3,5.62,3.1,7.89,5.42,2.27,2.31,4.04,4.96,5.32,7.96,1.28,2.99,1.92,6.19,1.92,9.58s-.64,6.65-1.92,9.64c-1.28,2.99-3.05,5.62-5.32,7.89-2.27,2.27-4.9,4.04-7.89,5.32-2.99,1.28-6.21,1.92-9.64,1.92Zm0-9.91c2.16,0,4.17-.38,6.04-1.16,1.87-.77,3.52-1.85,4.95-3.24,1.43-1.39,2.54-2.99,3.33-4.82.79-1.83,1.19-3.82,1.19-5.98s-.4-4-1.19-5.78-1.9-3.33-3.33-4.66c-1.43-1.32-3.08-2.35-4.95-3.1-1.87-.75-3.88-1.12-6.04-1.12s-4.25.39-6.14,1.16c-1.89.77-3.55,1.83-4.99,3.17-1.43,1.34-2.54,2.92-3.33,4.72-.79,1.81-1.19,3.76-1.19,5.88s.4,4.07,1.19,5.88c.79,1.81,1.9,3.39,3.33,4.75,1.43,1.37,3.09,2.42,4.99,3.17,1.89.75,3.94,1.12,6.14,1.12Z"/>
      <path class="cls-1" d="m190.14,280.32l-33.28,36.85,1.58-2.84,29.72-.2v9.71h-50.52v-.4l33.15-36.05-.92,2.11-30.31.2v-9.64h50.58v.26Z"/>
    </g>
  </g>
</svg>